<?xml version="1.0" encoding="UTF-8"?> <svg xmlns="http://www.w3.org/2000/svg" width="98" height="98" viewBox="0 0 98 98" fill="none"><path fill-rule="evenodd" clip-rule="evenodd" d="M97.6209 55.125L85.242 42.875H38.3913H10.1894H9.80005C11.1493 42.875 12.25 43.9757 12.25 45.3251V49.0001V52.675C12.25 54.0245 11.1493 55.125 9.80005 55.125H10.1894H59.6087H77.7085H85.242H97.6209Z" fill="url(#paint0_linear_3268_1682)"></path><path fill-rule="evenodd" clip-rule="evenodd" d="M17.1682 30.6219C23.523 19.6391 35.3987 12.25 49.0001 12.25C67.2095 12.25 82.3258 25.4941 85.242 42.875L97.6209 55.125C97.8711 53.1185 98 51.0745 98 49.0001C98 46.9259 97.8711 44.8815 97.6209 42.875C94.6067 18.7039 73.9877 0 49.0001 0C30.8647 0 15.0305 9.85202 6.5575 24.4959L17.1682 30.6219Z" fill="#7866FF"></path><path fill-rule="evenodd" clip-rule="evenodd" d="M12.25 45.3251C12.25 43.9757 11.1493 42.875 9.80002 42.875H8.93554H6.12489H2.44994C1.10048 42.875 0 43.9757 0 45.3251V52.675C0 54.0245 1.10048 55.125 2.44994 55.125H6.12489H6.17399H8.93593H9.80002C11.1493 55.125 12.25 54.0245 12.25 52.675V49.0001V45.3251Z" fill="#7866FF"></path><path fill-rule="evenodd" clip-rule="evenodd" d="M49.0001 85.7502C35.3985 85.7502 23.5228 78.3611 17.168 67.3781L6.5575 73.5043C15.0305 88.1482 30.8647 98.0002 49.0001 98.0002C67.1353 98.0002 82.9695 88.1482 91.4425 73.5043L80.8317 67.3782C74.4772 78.3611 62.6015 85.7502 49.0001 85.7502Z" fill="#7866FF"></path><path fill-rule="evenodd" clip-rule="evenodd" d="M85.2421 42.875C92.6648 43.7737 96.7911 47.8571 97.621 55.125C90.0231 53.6709 85.8968 49.5875 85.2421 42.875Z" fill="#7866FF"></path><defs><linearGradient id="paint0_linear_3268_1682" x1="9.80005" y1="48.9999" x2="97.6209" y2="48.9999" gradientUnits="userSpaceOnUse"><stop stop-color="#7866FF" stop-opacity="0"></stop><stop offset="0.75" stop-color="#7866FF"></stop><stop offset="1" stop-color="#7866FF"></stop></linearGradient></defs></svg> 